<?xml version="1.0" encoding="UTF-8" standalone="no"?>
<svg
   xmlns:dc="http://purl.org/dc/elements/1.1/"
   xmlns:cc="http://creativecommons.org/ns#"
   xmlns:rdf="http://www.w3.org/1999/02/22-rdf-syntax-ns#"
   xmlns:svg="http://www.w3.org/2000/svg"
   xmlns="http://www.w3.org/2000/svg"
   xmlns:xlink="http://www.w3.org/1999/xlink"
   id="svg8"
   version="1.1"
   viewBox="0 0 75 180"
   height="180mm"
   width="75mm">
  <defs
     id="defs2" />
  <metadata
     id="metadata5">
    <rdf:RDF>
      <cc:Work
         rdf:about="">
        <dc:format>image/svg+xml</dc:format>
        <dc:type
           rdf:resource="http://purl.org/dc/dcmitype/StillImage" />
        <dc:title></dc:title>
      </cc:Work>
    </rdf:RDF>
  </metadata>
  <g
     transform="translate(0,-117)"
     id="layer1">
    <rect
       y="118.1088"
       x="1.9331517"
       height="178.24596"
       width="71.406937"
       id="rect815"
       style="opacity:1;vector-effect:none;fill:#353e50;fill-opacity:1;stroke:none;stroke-width:0.20896679;stroke-linecap:butt;stroke-linejoin:round;stroke-miterlimit:4;stroke-dasharray:none;stroke-dashoffset:0;stroke-opacity:1" />
    <path
       id="path948"
       d="m 46.673899,186.22788 c 0.464084,0.83156 -3.092459,4.14883 -3.409195,4.22931 -1.028987,-0.0107 -2.151225,-0.45765 -5.459898,-0.45765 -3.381471,0 -4.793846,0.43275 -5.781393,0.48769 -0.325966,-0.10222 -3.865638,-3.25539 -3.42842,-4.16486 0.519717,-0.87434 3.012018,-1.61423 9.211779,-1.65463 4.194564,-0.0273 8.178613,0.53989 8.867127,1.56014 z"
       style="fill:#bbd9ee;fill-opacity:1;stroke:none;stroke-width:0.26458332px;stroke-linecap:butt;stroke-linejoin:miter;stroke-opacity:1" />
    <g
       transform="translate(-23.056548,77.863095)"
       id="g1167" class="btnRemote">
      <path
         style="opacity:1;vector-effect:none;fill:#bbd9ee;fill-opacity:1;stroke:none;stroke-width:0.69423509;stroke-linecap:round;stroke-linejoin:miter;stroke-miterlimit:4;stroke-dasharray:none;stroke-dashoffset:0;stroke-opacity:1;paint-order:fill markers stroke"
         d="m 32.403354,53.918368 h 3.683648 3.91842 c 0,0 3.114606,-0.03275 3.114606,3.439715 0,3.9311 -3.114606,3.636264 -3.114606,3.636264 h -3.682185 -3.985404 c 0,0 -2.714578,0.393112 -2.714578,-3.701783 0,-3.406953 2.780099,-3.374196 2.780099,-3.374196 z"
         id="rect836" />
      <text
         xml:space="preserve"
         style="font-style:normal;font-weight:normal;font-size:4.10714245px;line-height:1.25;font-family:sans-serif;letter-spacing:0px;word-spacing:0px;fill:#000000;fill-opacity:1;stroke:none;stroke-width:0.10267856"
         x="32.244446"
         y="58.893337"
         id="text1032"><tspan
           id="tspan1030"
           x="32.244446"
           y="58.893337"
           style="stroke-width:0.10267856">待机</tspan></text>
    </g>
    <g
       transform="translate(-23.056548,77.863095)"
       id="g1172" class="btnRemote">
      <path
         id="path839"
         d="m 81.046408,53.918368 h 3.683648 3.91842 c 0,0 3.114606,-0.03275 3.114606,3.439715 0,3.9311 -3.114606,3.636264 -3.114606,3.636264 h -3.682185 -3.985404 c 0,0 -2.714578,0.393112 -2.714578,-3.701783 0,-3.406953 2.780099,-3.374196 2.780099,-3.374196 z"
         style="opacity:1;vector-effect:none;fill:#bbd9ee;fill-opacity:1;stroke:none;stroke-width:0.69423509;stroke-linecap:round;stroke-linejoin:miter;stroke-miterlimit:4;stroke-dasharray:none;stroke-dashoffset:0;stroke-opacity:1;paint-order:fill markers stroke" />
      <text
         id="text1036"
         y="58.925423"
         x="80.915573"
         style="font-style:normal;font-weight:normal;font-size:4.10714245px;line-height:1.25;font-family:sans-serif;letter-spacing:0px;word-spacing:0px;fill:#000000;fill-opacity:1;stroke:none;stroke-width:0.10267856"
         xml:space="preserve"><tspan
           style="stroke-width:0.10267856"
           y="58.925423"
           x="80.915573"
           id="tspan1034">静音</tspan></text>
    </g>
    <g
       transform="translate(-23.056548,77.863095)"
       id="g1177" class="btnRemote">
      <path
         id="path841"
         d="m 32.403354,63.272801 h 3.683648 3.91842 c 0,0 3.114606,-0.03275 3.114606,3.439715 0,3.9311 -3.114606,3.636264 -3.114606,3.636264 h -3.682185 -3.985404 c 0,0 -2.714578,0.393112 -2.714578,-3.701783 0,-3.406953 2.780099,-3.374196 2.780099,-3.374196 z"
         style="opacity:1;vector-effect:none;fill:#bbd9ee;fill-opacity:1;stroke:none;stroke-width:0.69423509;stroke-linecap:round;stroke-linejoin:miter;stroke-miterlimit:4;stroke-dasharray:none;stroke-dashoffset:0;stroke-opacity:1;paint-order:fill markers stroke" />
      <text
         id="text1040"
         y="68.403191"
         x="35.392986"
         style="font-style:normal;font-weight:normal;font-size:4.10714245px;line-height:1.25;font-family:sans-serif;letter-spacing:0px;word-spacing:0px;fill:#000000;fill-opacity:1;stroke:none;stroke-width:0.10267856"
         xml:space="preserve"><tspan
           style="stroke-width:0.10267856"
           y="68.403191"
           x="35.392986"
           id="tspan1038">1</tspan></text>
    </g>
    <g
       transform="translate(-23.056548,77.863095)"
       id="g1182" class="btnRemote">
      <path
         style="opacity:1;vector-effect:none;fill:#bbd9ee;fill-opacity:1;stroke:none;stroke-width:0.69423509;stroke-linecap:round;stroke-linejoin:miter;stroke-miterlimit:4;stroke-dasharray:none;stroke-dashoffset:0;stroke-opacity:1;paint-order:fill markers stroke"
         d="m 48.61771,63.272801 h 3.683648 3.91842 c 0,0 3.114606,-0.03275 3.114606,3.439715 0,3.9311 -3.114606,3.636264 -3.114606,3.636264 h -3.682185 -3.985404 c 0,0 -2.714578,0.393112 -2.714578,-3.701783 0,-3.406953 2.780099,-3.374196 2.780099,-3.374196 z"
         id="path843" />
      <text
         xml:space="preserve"
         style="font-style:normal;font-weight:normal;font-size:4.10714245px;line-height:1.25;font-family:sans-serif;letter-spacing:0px;word-spacing:0px;fill:#000000;fill-opacity:1;stroke:none;stroke-width:0.10267856"
         x="51.370701"
         y="68.395172"
         id="text1044"><tspan
           id="tspan1042"
           x="51.370701"
           y="68.395172"
           style="stroke-width:0.10267856">2</tspan></text>
    </g>
    <g
       transform="translate(-23.056548,77.863095)"
       id="g1192" class="btnRemote">
      <path
         style="opacity:1;vector-effect:none;fill:#bbd9ee;fill-opacity:1;stroke:none;stroke-width:0.69423509;stroke-linecap:round;stroke-linejoin:miter;stroke-miterlimit:4;stroke-dasharray:none;stroke-dashoffset:0;stroke-opacity:1;paint-order:fill markers stroke"
         d="m 81.046408,63.272801 h 3.683648 3.91842 c 0,0 3.114606,-0.03275 3.114606,3.439715 0,3.9311 -3.114606,3.636264 -3.114606,3.636264 h -3.682185 -3.985404 c 0,0 -2.714578,0.393112 -2.714578,-3.701783 0,-3.406953 2.780099,-3.374196 2.780099,-3.374196 z"
         id="path847" />
      <text
         id="text1048"
         y="68.308937"
         x="82.11483"
         style="font-style:normal;font-weight:normal;font-size:4.10714245px;line-height:1.25;font-family:sans-serif;letter-spacing:0px;word-spacing:0px;fill:#000000;fill-opacity:1;stroke:none;stroke-width:0.10267856"
         xml:space="preserve"><tspan
           style="stroke-width:0.10267856"
           y="68.308937"
           x="82.11483"
           id="tspan1046">V+</tspan></text>
    </g>
    <g
       transform="translate(-23.056548,77.863095)"
       id="g1187" class="btnRemote">
      <path
         id="path845"
         d="m 64.83206,63.272801 h 3.683648 3.91842 c 0,0 3.114606,-0.03275 3.114606,3.439715 0,3.9311 -3.114606,3.636264 -3.114606,3.636264 h -3.682185 -3.985404 c 0,0 -2.714578,0.393112 -2.714578,-3.701783 0,-3.406953 2.780099,-3.374196 2.780099,-3.374196 z"
         style="opacity:1;vector-effect:none;fill:#bbd9ee;fill-opacity:1;stroke:none;stroke-width:0.69423509;stroke-linecap:round;stroke-linejoin:miter;stroke-miterlimit:4;stroke-dasharray:none;stroke-dashoffset:0;stroke-opacity:1;paint-order:fill markers stroke" />
      <text
         xml:space="preserve"
         style="font-style:normal;font-weight:normal;font-size:4.10714245px;line-height:1.25;font-family:sans-serif;letter-spacing:0px;word-spacing:0px;fill:#000000;fill-opacity:1;stroke:none;stroke-width:0.10267856"
         x="67.605103"
         y="68.369095"
         id="text1052"><tspan
           id="tspan1050"
           x="67.605103"
           y="68.369095"
           style="stroke-width:0.10267856">3</tspan></text>
    </g>
    <g
       transform="translate(-23.056548,77.863095)"
       id="g1197" class="btnRemote">
      <path
         id="path857"
         d="m 81.046408,71.18018 h 3.683648 3.91842 c 0,0 3.114606,-0.03275 3.114606,3.439715 0,3.9311 -3.114606,3.636264 -3.114606,3.636264 h -3.682185 -3.985404 c 0,0 -2.714578,0.393112 -2.714578,-3.701783 0,-3.406953 2.780099,-3.374196 2.780099,-3.374196 z"
         style="opacity:1;vector-effect:none;fill:#bbd9ee;fill-opacity:1;stroke:none;stroke-width:0.69423509;stroke-linecap:round;stroke-linejoin:miter;stroke-miterlimit:4;stroke-dasharray:none;stroke-dashoffset:0;stroke-opacity:1;paint-order:fill markers stroke" />
      <text
         xml:space="preserve"
         style="font-style:normal;font-weight:normal;font-size:4.10714245px;line-height:1.25;font-family:sans-serif;letter-spacing:0px;word-spacing:0px;fill:#000000;fill-opacity:1;stroke:none;stroke-width:0.10267856"
         x="82.853836"
         y="76.216316"
         id="text1056"><tspan
           id="tspan1054"
           x="82.853836"
           y="76.216316"
           style="stroke-width:0.10267856">V-</tspan></text>
    </g>
    <g
       transform="translate(-23.056548,77.863095)"
       id="g1232" class="btnRemote">
      <path
         style="opacity:1;vector-effect:none;fill:#bbd9ee;fill-opacity:1;stroke:none;stroke-width:0.69423509;stroke-linecap:round;stroke-linejoin:miter;stroke-miterlimit:4;stroke-dasharray:none;stroke-dashoffset:0;stroke-opacity:1;paint-order:fill markers stroke"
         d="m 81.046408,79.066598 h 3.683648 3.91842 c 0,0 3.114606,-0.03275 3.114606,3.439715 0,3.9311 -3.114606,3.636264 -3.114606,3.636264 h -3.682185 -3.985404 c 0,0 -2.714578,0.393112 -2.714578,-3.701783 0,-3.406953 2.780099,-3.374196 2.780099,-3.374196 z"
         id="path859" />
      <text
         id="text1060"
         y="84.10273"
         x="82.104797"
         style="font-style:normal;font-weight:normal;font-size:4.10714245px;line-height:1.25;font-family:sans-serif;letter-spacing:0px;word-spacing:0px;fill:#000000;fill-opacity:1;stroke:none;stroke-width:0.10267856"
         xml:space="preserve"><tspan
           style="stroke-width:0.10267856"
           y="84.10273"
           x="82.104797"
           id="tspan1058">P+</tspan></text>
    </g>
    <g
       transform="translate(-23.056548,77.863095)"
       id="g1227" class="btnRemote">
      <path
         id="path861"
         d="m 64.83206,79.066598 h 3.683648 3.91842 c 0,0 3.114606,-0.03275 3.114606,3.439715 0,3.9311 -3.114606,3.636264 -3.114606,3.636264 h -3.682185 -3.985404 c 0,0 -2.714578,0.393112 -2.714578,-3.701783 0,-3.406953 2.780099,-3.374196 2.780099,-3.374196 z"
         style="opacity:1;vector-effect:none;fill:#bbd9ee;fill-opacity:1;stroke:none;stroke-width:0.69423509;stroke-linecap:round;stroke-linejoin:miter;stroke-miterlimit:4;stroke-dasharray:none;stroke-dashoffset:0;stroke-opacity:1;paint-order:fill markers stroke" />
      <text
         xml:space="preserve"
         style="font-style:normal;font-weight:normal;font-size:4.10714245px;line-height:1.25;font-family:sans-serif;letter-spacing:0px;word-spacing:0px;fill:#000000;fill-opacity:1;stroke:none;stroke-width:0.10267856"
         x="67.603096"
         y="84.162895"
         id="text1064"><tspan
           id="tspan1062"
           x="67.603096"
           y="84.162895"
           style="stroke-width:0.10267856">9</tspan></text>
    </g>
    <g
       transform="translate(-23.056548,77.863095)"
       id="g1222" class="btnRemote">
      <path
         style="opacity:1;vector-effect:none;fill:#bbd9ee;fill-opacity:1;stroke:none;stroke-width:0.69423509;stroke-linecap:round;stroke-linejoin:miter;stroke-miterlimit:4;stroke-dasharray:none;stroke-dashoffset:0;stroke-opacity:1;paint-order:fill markers stroke"
         d="m 48.61771,79.066598 h 3.683648 3.918419 c 0,0 3.114607,-0.03275 3.114607,3.439715 0,3.9311 -3.114607,3.636264 -3.114607,3.636264 h -3.682184 -3.985404 c 0,0 -2.714579,0.393112 -2.714579,-3.701783 0,-3.406953 2.780099,-3.374196 2.7801,-3.374196 z"
         id="path863" />
      <text
         id="text1068"
         y="84.163895"
         x="51.381729"
         style="font-style:normal;font-weight:normal;font-size:4.10714245px;line-height:1.25;font-family:sans-serif;letter-spacing:0px;word-spacing:0px;fill:#000000;fill-opacity:1;stroke:none;stroke-width:0.10267856"
         xml:space="preserve"><tspan
           style="stroke-width:0.10267856"
           y="84.163895"
           x="51.381729"
           id="tspan1066">8</tspan></text>
    </g>
    <g
       transform="translate(-23.056548,77.863095)"
       id="g1217" class="btnRemote">
      <path
         id="path851"
         d="m 32.403354,79.066598 h 3.683648 3.91842 c 0,0 3.114606,-0.03275 3.114606,3.439715 0,3.9311 -3.114606,3.636264 -3.114606,3.636264 h -3.682185 -3.985404 c 0,0 -2.714578,0.393112 -2.714578,-3.701783 0,-3.406953 2.780099,-3.374196 2.780099,-3.374196 z"
         style="opacity:1;vector-effect:none;fill:#bbd9ee;fill-opacity:1;stroke:none;stroke-width:0.69423509;stroke-linecap:round;stroke-linejoin:miter;stroke-miterlimit:4;stroke-dasharray:none;stroke-dashoffset:0;stroke-opacity:1;paint-order:fill markers stroke" />
      <text
         xml:space="preserve"
         style="font-style:normal;font-weight:normal;font-size:4.10714245px;line-height:1.25;font-family:sans-serif;letter-spacing:0px;word-spacing:0px;fill:#000000;fill-opacity:1;stroke:none;stroke-width:0.10267856"
         x="35.162361"
         y="84.162895"
         id="text1072"><tspan
           id="tspan1070"
           x="35.162361"
           y="84.162895"
           style="stroke-width:0.10267856">7</tspan></text>
    </g>
    <g
       transform="translate(-23.056548,77.863095)"
       id="g1212" class="btnRemote">
      <path
         style="opacity:1;vector-effect:none;fill:#bbd9ee;fill-opacity:1;stroke:none;stroke-width:0.69423509;stroke-linecap:round;stroke-linejoin:miter;stroke-miterlimit:4;stroke-dasharray:none;stroke-dashoffset:0;stroke-opacity:1;paint-order:fill markers stroke"
         d="m 32.403354,71.18018 h 3.683648 3.91842 c 0,0 3.114606,-0.03275 3.114606,3.439715 0,3.9311 -3.114606,3.636264 -3.114606,3.636264 h -3.682185 -3.985404 c 0,0 -2.714578,0.393112 -2.714578,-3.701783 0,-3.406953 2.780099,-3.374196 2.780099,-3.374196 z"
         id="path849" />
      <text
         id="text1076"
         y="76.276474"
         x="35.189434"
         style="font-style:normal;font-weight:normal;font-size:4.10714245px;line-height:1.25;font-family:sans-serif;letter-spacing:0px;word-spacing:0px;fill:#000000;fill-opacity:1;stroke:none;stroke-width:0.10267856"
         xml:space="preserve"><tspan
           style="stroke-width:0.10267856"
           y="76.276474"
           x="35.189434"
           id="tspan1074">4</tspan></text>
    </g>
    <g
       transform="translate(-23.056548,77.863095)"
       id="g1207" class="btnRemote">
      <path
         id="path853"
         d="m 48.61771,71.18018 h 3.683648 3.91842 c 0,0 3.114606,-0.03275 3.114606,3.439715 0,3.9311 -3.114606,3.636264 -3.114606,3.636264 h -3.682185 -3.985404 c 0,0 -2.714578,0.393112 -2.714578,-3.701783 0,-3.406953 2.780099,-3.374196 2.780099,-3.374196 z"
         style="opacity:1;vector-effect:none;fill:#bbd9ee;fill-opacity:1;stroke:none;stroke-width:0.69423509;stroke-linecap:round;stroke-linejoin:miter;stroke-miterlimit:4;stroke-dasharray:none;stroke-dashoffset:0;stroke-opacity:1;paint-order:fill markers stroke" />
      <text
         xml:space="preserve"
         style="font-style:normal;font-weight:normal;font-size:4.10714245px;line-height:1.25;font-family:sans-serif;letter-spacing:0px;word-spacing:0px;fill:#000000;fill-opacity:1;stroke:none;stroke-width:0.10267856"
         x="51.354656"
         y="76.249405"
         id="text1080"><tspan
           id="tspan1078"
           x="51.354656"
           y="76.249405"
           style="stroke-width:0.10267856">5</tspan></text>
    </g>
    <g
       transform="translate(-23.056548,77.863095)"
       id="g1202" class="btnRemote">
      <path
         style="opacity:1;vector-effect:none;fill:#bbd9ee;fill-opacity:1;stroke:none;stroke-width:0.69423509;stroke-linecap:round;stroke-linejoin:miter;stroke-miterlimit:4;stroke-dasharray:none;stroke-dashoffset:0;stroke-opacity:1;paint-order:fill markers stroke"
         d="m 64.83206,71.18018 h 3.683648 3.91842 c 0,0 3.114606,-0.03275 3.114606,3.439715 0,3.9311 -3.114606,3.636264 -3.114606,3.636264 h -3.682185 -3.985404 c 0,0 -2.714578,0.393112 -2.714578,-3.701783 0,-3.406953 2.780099,-3.374196 2.780099,-3.374196 z"
         id="path855" />
      <text
         id="text1084"
         y="76.276474"
         x="67.563995"
         style="font-style:normal;font-weight:normal;font-size:4.10714245px;line-height:1.25;font-family:sans-serif;letter-spacing:0px;word-spacing:0px;fill:#000000;fill-opacity:1;stroke:none;stroke-width:0.10267856"
         xml:space="preserve"><tspan
           style="stroke-width:0.10267856"
           y="76.276474"
           x="67.563995"
           id="tspan1082">6</tspan></text>
    </g>
    <g
       transform="translate(-23.056548,77.863095)"
       id="g1237" class="btnRemote">
      <path
         id="path871"
         d="m 81.046408,86.874734 h 3.683648 3.91842 c 0,0 3.114606,-0.03275 3.114606,3.439715 0,3.9311 -3.114606,3.636264 -3.114606,3.636264 h -3.682185 -3.985404 c 0,0 -2.714578,0.393112 -2.714578,-3.701783 0,-3.406953 2.780099,-3.374196 2.780099,-3.374196 z"
         style="opacity:1;vector-effect:none;fill:#bbd9ee;fill-opacity:1;stroke:none;stroke-width:0.69423509;stroke-linecap:round;stroke-linejoin:miter;stroke-miterlimit:4;stroke-dasharray:none;stroke-dashoffset:0;stroke-opacity:1;paint-order:fill markers stroke" />
      <text
         xml:space="preserve"
         style="font-style:normal;font-weight:normal;font-size:4.10714245px;line-height:1.25;font-family:sans-serif;letter-spacing:0px;word-spacing:0px;fill:#000000;fill-opacity:1;stroke:none;stroke-width:0.10267856"
         x="82.795677"
         y="91.910866"
         id="text1088"><tspan
           id="tspan1086"
           x="82.795677"
           y="91.910866"
           style="stroke-width:0.10267856">P-</tspan></text>
    </g>
    <g
       transform="translate(-23.056548,77.863095)"
       id="g1252" class="btnRemote">
      <path
         style="opacity:1;vector-effect:none;fill:#bbd9ee;fill-opacity:1;stroke:none;stroke-width:0.69423509;stroke-linecap:round;stroke-linejoin:miter;stroke-miterlimit:4;stroke-dasharray:none;stroke-dashoffset:0;stroke-opacity:1;paint-order:fill markers stroke"
         d="m 32.403354,86.874734 h 3.683648 3.91842 c 0,0 3.114606,-0.03275 3.114606,3.439715 0,3.9311 -3.114606,3.636264 -3.114606,3.636264 h -3.682185 -3.985404 c 0,0 -2.714578,0.393112 -2.714578,-3.701783 0,-3.406953 2.780099,-3.374196 2.780099,-3.374196 z"
         id="path865" />
      <text
         id="text1092"
         y="91.861732"
         x="32.242439"
         style="font-style:normal;font-weight:normal;font-size:4.10714245px;line-height:1.25;font-family:sans-serif;letter-spacing:0px;word-spacing:0px;fill:#000000;fill-opacity:1;stroke:none;stroke-width:0.10267856"
         xml:space="preserve"><tspan
           style="stroke-width:0.10267856"
           y="91.861732"
           x="32.242439"
           id="tspan1090">信息</tspan></text>
    </g>
    <g
       transform="translate(-23.056548,77.863095)"
       id="g1247" class="btnRemote">
      <path
         id="path867"
         d="m 48.61771,86.874734 h 3.683648 3.918419 c 0,0 3.114607,-0.03275 3.114607,3.439715 0,3.9311 -3.114607,3.636264 -3.114607,3.636264 h -3.682184 -3.985404 c 0,0 -2.714578,0.393112 -2.714578,-3.701783 0,-3.406953 2.780099,-3.374196 2.780099,-3.374196 z"
         style="opacity:1;vector-effect:none;fill:#bbd9ee;fill-opacity:1;stroke:none;stroke-width:0.69423509;stroke-linecap:round;stroke-linejoin:miter;stroke-miterlimit:4;stroke-dasharray:none;stroke-dashoffset:0;stroke-opacity:1;paint-order:fill markers stroke" />
      <text
         xml:space="preserve"
         style="font-style:normal;font-weight:normal;font-size:4.10714245px;line-height:1.25;font-family:sans-serif;letter-spacing:0px;word-spacing:0px;fill:#000000;fill-opacity:1;stroke:none;stroke-width:0.10267856"
         x="51.378723"
         y="91.971031"
         id="text1096"><tspan
           id="tspan1094"
           x="51.378723"
           y="91.971031"
           style="stroke-width:0.10267856">0</tspan></text>
    </g>
    <g
       transform="translate(-23.056548,77.863095)"
       id="g1242" class="btnRemote">
      <path
         style="opacity:1;vector-effect:none;fill:#bbd9ee;fill-opacity:1;stroke:none;stroke-width:0.69423509;stroke-linecap:round;stroke-linejoin:miter;stroke-miterlimit:4;stroke-dasharray:none;stroke-dashoffset:0;stroke-opacity:1;paint-order:fill markers stroke"
         d="m 64.83206,86.874734 h 3.683648 3.91842 c 0,0 3.114606,-0.03275 3.114606,3.439715 0,3.9311 -3.114606,3.636264 -3.114606,3.636264 h -3.682185 -3.985404 c 0,0 -2.714578,0.393112 -2.714578,-3.701783 0,-3.406953 2.780099,-3.374196 2.780099,-3.374196 z"
         id="path869" />
      <text
         xml:space="preserve"
         style="font-style:normal;font-weight:normal;font-size:4.10714245px;line-height:1.25;font-family:sans-serif;letter-spacing:0px;word-spacing:0px;fill:#000000;fill-opacity:1;stroke:none;stroke-width:0.10267856"
         x="64.817543"
         y="91.837669"
         id="text1100"><tspan
           id="tspan1098"
           x="64.817543"
           y="91.837669"
           style="stroke-width:0.10267856">返回</tspan></text>
    </g>
    <g
       transform="translate(-23.056548,77.863095)"
       id="g1257" class="btnRemote">
      <path
         id="path875"
         d="m 32.403354,98.552378 h 3.683648 3.91842 c 0,0 3.114606,-0.03275 3.114606,3.439712 0,3.9311 -3.114606,3.63627 -3.114606,3.63627 h -3.682185 -3.985404 c 0,0 -2.714578,0.39311 -2.714578,-3.70179 0,-3.406949 2.780099,-3.374192 2.780099,-3.374192 z"
         style="opacity:1;vector-effect:none;fill:#bbd9ee;fill-opacity:1;stroke:none;stroke-width:0.69423509;stroke-linecap:round;stroke-linejoin:miter;stroke-miterlimit:4;stroke-dasharray:none;stroke-dashoffset:0;stroke-opacity:1;paint-order:fill markers stroke" />
      <text
         xml:space="preserve"
         style="font-style:normal;font-weight:normal;font-size:4.10714245px;line-height:1.25;font-family:sans-serif;letter-spacing:0px;word-spacing:0px;fill:#000000;fill-opacity:1;stroke:none;stroke-width:0.10267856"
         x="32.276531"
         y="103.52935"
         id="text1104"><tspan
           id="tspan1102"
           x="32.276531"
           y="103.52935"
           style="stroke-width:0.10267856">菜单</tspan></text>
    </g>
    <g
       transform="translate(-23.056548,77.863095)"
       id="g1262" class="btnRemote">
      <path
         style="opacity:1;vector-effect:none;fill:#bbd9ee;fill-opacity:1;stroke:none;stroke-width:0.69423509;stroke-linecap:round;stroke-linejoin:miter;stroke-miterlimit:4;stroke-dasharray:none;stroke-dashoffset:0;stroke-opacity:1;paint-order:fill markers stroke"
         d="m 81.046408,98.552378 h 3.683648 3.91842 c 0,0 3.114606,-0.03275 3.114606,3.439712 0,3.9311 -3.114606,3.63627 -3.114606,3.63627 h -3.682185 -3.985404 c 0,0 -2.714578,0.39311 -2.714578,-3.70179 0,-3.406949 2.780099,-3.374192 2.780099,-3.374192 z"
         id="path873" />
      <text
         id="text1108"
         y="103.52334"
         x="80.921593"
         style="font-style:normal;font-weight:normal;font-size:4.10714245px;line-height:1.25;font-family:sans-serif;letter-spacing:0px;word-spacing:0px;fill:#000000;fill-opacity:1;stroke:none;stroke-width:0.10267856"
         xml:space="preserve"><tspan
           style="stroke-width:0.10267856"
           y="103.52334"
           x="80.921593"
           id="tspan1106">主页</tspan></text>
    </g>
    <g
       transform="translate(-23.056548,77.863095)"
       id="g1292" class="btnRemote">
      <path
         style="opacity:1;vector-effect:none;fill:#bbd9ee;fill-opacity:1;stroke:none;stroke-width:0.69423509;stroke-linecap:round;stroke-linejoin:miter;stroke-miterlimit:4;stroke-dasharray:none;stroke-dashoffset:0;stroke-opacity:1;paint-order:fill markers stroke"
         d="m 32.403354,127.28385 h 3.683648 3.91842 c 0,0 3.114606,-0.0328 3.114606,3.43971 0,3.9311 -3.114606,3.63627 -3.114606,3.63627 h -3.682185 -3.985404 c 0,0 -2.714578,0.39311 -2.714578,-3.70179 0,-3.40694 2.780099,-3.37419 2.780099,-3.37419 z"
         id="path877" />
      <text
         id="text1112"
         y="132.25481"
         x="32.428944"
         style="font-style:normal;font-weight:normal;font-size:4.10714245px;line-height:1.25;font-family:sans-serif;letter-spacing:0px;word-spacing:0px;fill:#000000;fill-opacity:1;stroke:none;stroke-width:0.10267856"
         xml:space="preserve"><tspan
           style="stroke-width:0.10267856"
           y="132.25481"
           x="32.428944"
           id="tspan1110">退出</tspan></text>
    </g>
    <g
       transform="translate(-23.056548,77.863095)"
       id="g1312" class="btnRemote">
      <path
         id="path889"
         d="m 31.962931,136.77192 h 3.100085 3.297665 c 0,0 2.621191,-0.0328 2.621191,3.43971 0,3.9311 -2.621191,3.63627 -2.621191,3.63627 h -3.098854 -3.354036 c 0,0 -2.284536,0.39311 -2.284536,-3.70179 0,-3.40694 2.339676,-3.37419 2.339676,-3.37419 z"
         style="opacity:1;vector-effect:none;fill:#bbd9ee;fill-opacity:1;stroke:none;stroke-width:0.63687521;stroke-linecap:round;stroke-linejoin:miter;stroke-miterlimit:4;stroke-dasharray:none;stroke-dashoffset:0;stroke-opacity:1;paint-order:fill markers stroke" />
      <text
         xml:space="preserve"
         style="font-style:normal;font-weight:normal;font-size:4.10714245px;line-height:1.25;font-family:sans-serif;letter-spacing:0px;word-spacing:0px;fill:#000000;fill-opacity:1;stroke:none;stroke-width:0.10267856"
         x="31.221491"
         y="141.65665"
         id="text1116"><tspan
           id="tspan1114"
           x="31.221491"
           y="141.65665"
           style="stroke-width:0.10267856">股票</tspan></text>
    </g>
    <g
       transform="translate(-23.056548,77.863095)"
       id="g1307" class="btnRemote">
      <path
         style="opacity:1;vector-effect:none;fill:#bbd9ee;fill-opacity:1;stroke:none;stroke-width:0.63687521;stroke-linecap:round;stroke-linejoin:miter;stroke-miterlimit:4;stroke-dasharray:none;stroke-dashoffset:0;stroke-opacity:1;paint-order:fill markers stroke"
         d="m 46.128216,136.77192 h 3.100085 3.297665 c 0,0 2.621191,-0.0328 2.621191,3.43971 0,3.9311 -2.621191,3.63627 -2.621191,3.63627 h -3.098854 -3.354036 c 0,0 -2.284536,0.39311 -2.284536,-3.70179 0,-3.40694 2.339676,-3.37419 2.339676,-3.37419 z"
         id="path1026" />
      <text
         id="text1120"
         y="141.80605"
         x="45.282494"
         style="font-style:normal;font-weight:normal;font-size:4.10714245px;line-height:1.25;font-family:sans-serif;letter-spacing:0px;word-spacing:0px;fill:#000000;fill-opacity:1;stroke:none;stroke-width:0.10267856"
         xml:space="preserve"><tspan
           style="stroke-width:0.10267856"
           y="141.80605"
           x="45.282494"
           id="tspan1118">EPG</tspan></text>
    </g>
    <g
       transform="translate(-23.056548,77.863095)"
       id="g1302" class="btnRemote">
      <path
         id="path883"
         d="m 62.069769,136.77192 h 4.704883 5.004742 c 0,0 3.978082,-0.0328 3.978082,3.43971 0,3.9311 -3.978082,3.63627 -3.978082,3.63627 h -4.703015 -5.090296 c 0,0 -3.467153,0.39311 -3.467153,-3.70179 0,-3.40694 3.550839,-3.37419 3.550839,-3.37419 z"
         style="opacity:1;vector-effect:none;fill:#bbd9ee;fill-opacity:1;stroke:none;stroke-width:0.78458846;stroke-linecap:round;stroke-linejoin:miter;stroke-miterlimit:4;stroke-dasharray:none;stroke-dashoffset:0;stroke-opacity:1;paint-order:fill markers stroke" />
      <text
         xml:space="preserve"
         style="font-style:normal;font-weight:normal;font-size:4.10714245px;line-height:1.25;font-family:sans-serif;letter-spacing:0px;word-spacing:0px;fill:#000000;fill-opacity:1;stroke:none;stroke-width:0.10267856"
         x="60.919331"
         y="141.80806"
         id="text1124"><tspan
           id="tspan1122"
           x="60.919331"
           y="141.80806"
           style="stroke-width:0.10267856">NVOD</tspan></text>
    </g>
    <g
       transform="translate(-23.056548,77.863095)"
       id="g1317" class="btnRemote">
      <path
         id="path1028"
         d="m 82.744141,136.77192 h 3.100085 3.297665 c 0,0 2.621191,-0.0328 2.621191,3.43971 0,3.9311 -2.621191,3.63627 -2.621191,3.63627 h -3.098854 -3.354036 c 0,0 -2.284536,0.39311 -2.284536,-3.70179 0,-3.40694 2.339676,-3.37419 2.339676,-3.37419 z"
         style="opacity:1;vector-effect:none;fill:#bbd9ee;fill-opacity:1;stroke:none;stroke-width:0.63687521;stroke-linecap:round;stroke-linejoin:miter;stroke-miterlimit:4;stroke-dasharray:none;stroke-dashoffset:0;stroke-opacity:1;paint-order:fill markers stroke" />
      <text
         id="text1128"
         y="141.76294"
         x="81.966606"
         style="font-style:normal;font-weight:normal;font-size:4.10714245px;line-height:1.25;font-family:sans-serif;letter-spacing:0px;word-spacing:0px;fill:#000000;fill-opacity:1;stroke:none;stroke-width:0.10267856"
         xml:space="preserve"><tspan
           style="stroke-width:0.10267856"
           y="141.76294"
           x="81.966606"
           id="tspan1126">广播</tspan></text>
    </g>
    <g
       transform="translate(-23.056548,77.863095)"
       id="g1297" class="btnRemote">
      <path
         id="path879"
         d="m 81.046408,127.28385 h 3.683648 3.91842 c 0,0 3.114606,-0.0328 3.114606,3.43971 0,3.9311 -3.114606,3.63627 -3.114606,3.63627 h -3.682185 -3.985404 c 0,0 -2.714578,0.39311 -2.714578,-3.70179 0,-3.40694 2.780099,-3.37419 2.780099,-3.37419 z"
         style="opacity:1;vector-effect:none;fill:#bbd9ee;fill-opacity:1;stroke:none;stroke-width:0.69423509;stroke-linecap:round;stroke-linejoin:miter;stroke-miterlimit:4;stroke-dasharray:none;stroke-dashoffset:0;stroke-opacity:1;paint-order:fill markers stroke" />
      <text
         xml:space="preserve"
         style="font-style:normal;font-weight:normal;font-size:4.10714245px;line-height:1.25;font-family:sans-serif;letter-spacing:0px;word-spacing:0px;fill:#000000;fill-opacity:1;stroke:none;stroke-width:0.10267856"
         x="80.91758"
         y="132.26884"
         id="text1132"><tspan
           id="tspan1130"
           x="80.91758"
           y="132.26884"
           style="stroke-width:0.10267856">列表</tspan></text>
    </g>
    <g
       transform="translate(-23.056548,77.863095)"
       id="g1272" class="btnRemote">
      <ellipse
         style="opacity:1;vector-effect:none;fill:#bbd9ee;fill-opacity:1;stroke:none;stroke-width:0.354;stroke-linecap:round;stroke-linejoin:miter;stroke-miterlimit:4;stroke-dasharray:none;stroke-dashoffset:0;stroke-opacity:1;paint-order:fill markers stroke"
         id="path899"
         cx="60.693169"
         cy="118.2291"
         rx="6.1471992"
         ry="4.0090427" />
      <text
         id="text1136"
         y="119.665"
         x="56.606079"
         style="font-style:normal;font-weight:normal;font-size:4.10714245px;line-height:1.25;font-family:sans-serif;letter-spacing:0px;word-spacing:0px;fill:#000000;fill-opacity:1;stroke:none;stroke-width:0.10267856"
         xml:space="preserve"><tspan
           style="stroke-width:0.10267856"
           y="119.665"
           x="56.606079"
           id="tspan1134">确定</tspan></text>
    </g>
    <g
       transform="translate(-23.056548,77.863095)"
       id="g1267" class="btnRemote">
      <path
         id="path980"
         d="m 69.730447,108.36478 c 0.464084,0.83156 -3.092459,4.14883 -3.409195,4.22931 -1.028987,-0.0107 -2.151225,-0.45765 -5.459898,-0.45765 -3.381471,0 -4.793846,0.43275 -5.781393,0.48769 -0.325966,-0.10222 -3.865638,-3.25539 -3.42842,-4.16486 0.519717,-0.87434 3.012018,-1.61423 9.211779,-1.65463 4.194564,-0.0273 8.178613,0.53989 8.867127,1.56014 z"
         style="fill:#bbd9ee;fill-opacity:1;stroke:none;stroke-width:0.26458332px;stroke-linecap:butt;stroke-linejoin:miter;stroke-opacity:1" />
      <text
         xml:space="preserve"
         style="font-style:normal;font-weight:normal;font-size:4.10714245px;line-height:1.25;font-family:sans-serif;letter-spacing:0px;word-spacing:0px;fill:#000000;fill-opacity:1;stroke:none;stroke-width:0.10267856"
         x="58.637592"
         y="111.24005"
         id="text1140"><tspan
           id="tspan1138"
           x="58.637592"
           y="111.24005"
           style="stroke-width:0.10267856">上</tspan></text>
    </g>
    <g
       transform="translate(-23.056548,77.863095)"
       id="g1287" class="btnRemote">
      <use
         x="0"
         y="0"
         xlink:href="#path980"
         id="use982"
         transform="matrix(1,0,0,-1,0,236.34226)"
         width="100%"
         height="100%" />
      <text
         id="text1144"
         y="127.91383"
         x="58.639599"
         style="font-style:normal;font-weight:normal;font-size:4.10714245px;line-height:1.25;font-family:sans-serif;letter-spacing:0px;word-spacing:0px;fill:#000000;fill-opacity:1;stroke:none;stroke-width:0.10267856"
         xml:space="preserve"><tspan
           style="stroke-width:0.10267856"
           y="127.91383"
           x="58.639599"
           id="tspan1142">下</tspan></text>
    </g>
    <g
       transform="translate(-23.056548,77.863095)"
       id="g1282" class="btnRemote">
      <use
         height="100%"
         width="100%"
         transform="matrix(0,0.88960636,1.0688788,0,-70.0042,64.556071)"
         id="use984"
         xlink:href="#path980"
         y="0"
         x="0" />
      <text
         xml:space="preserve"
         style="font-style:normal;font-weight:normal;font-size:4.10714245px;line-height:1.25;font-family:sans-serif;letter-spacing:0px;word-spacing:0px;fill:#000000;fill-opacity:1;stroke:none;stroke-width:0.10267856"
         x="45.239178"
         y="120.11134"
         id="text1148"><tspan
           id="tspan1146"
           x="45.239178"
           y="120.11134"
           style="stroke-width:0.10267856">左</tspan></text>
    </g>
    <g
       transform="translate(-23.056548,77.863095)"
       id="g1277" class="btnRemote">
      <use
         x="0"
         y="0"
         xlink:href="#path980"
         id="use1162"
         transform="matrix(0,0.88960636,-1.0688788,0,190.78196,64.556071)"
         width="100%"
         height="100%" />
      <text
         id="text1152"
         y="120.00505"
         x="71.467537"
         style="font-style:normal;font-weight:normal;font-size:4.10714245px;line-height:1.25;font-family:sans-serif;letter-spacing:0px;word-spacing:0px;fill:#000000;fill-opacity:1;stroke:none;stroke-width:0.10267856"
         xml:space="preserve"><tspan
           style="stroke-width:0.10267856"
           y="120.00505"
           x="71.467537"
           id="tspan1150">右</tspan></text>
    </g>
  </g>
</svg>
